<svg 
 xmlns="http://www.w3.org/2000/svg"
 xmlns:xlink="http://www.w3.org/1999/xlink"
 width="240px" height="100px">
<defs>
<linearGradient id="PSgrad_0" x1="0%" x2="70.711%" y1="0%" y2="70.711%">
  <stop offset="0%" stop-color="rgb(254,186,104)" stop-opacity="1" />
  <stop offset="100%" stop-color="rgb(254,125,78)" stop-opacity="1" />
</linearGradient>

</defs>
<path fill-rule="evenodd"  fill="rgb(254, 74, 75)"
 d="M229.000,50.000 C229.000,56.075 233.925,61.000 240.000,61.000 L240.000,92.000 C240.000,96.418 236.418,100.000 232.000,100.000 L8.000,100.000 C3.582,100.000 -0.000,96.418 -0.000,92.000 L-0.000,61.000 C6.075,61.000 11.000,56.075 11.000,50.000 C11.000,43.925 6.075,39.000 -0.000,39.000 L-0.000,8.000 C-0.000,3.582 3.582,-0.000 8.000,-0.000 L232.000,-0.000 C236.418,-0.000 240.000,3.582 240.000,8.000 L240.000,39.000 C233.925,39.000 229.000,43.925 229.000,50.000 Z"/>
<path fill="url(#PSgrad_0)"
 d="M229.000,50.000 C229.000,56.075 233.925,61.000 240.000,61.000 L240.000,92.000 C240.000,96.418 236.418,100.000 232.000,100.000 L8.000,100.000 C3.582,100.000 -0.000,96.418 -0.000,92.000 L-0.000,61.000 C6.075,61.000 11.000,56.075 11.000,50.000 C11.000,43.925 6.075,39.000 -0.000,39.000 L-0.000,8.000 C-0.000,3.582 3.582,-0.000 8.000,-0.000 L232.000,-0.000 C236.418,-0.000 240.000,3.582 240.000,8.000 L240.000,39.000 C233.925,39.000 229.000,43.925 229.000,50.000 Z"/>
</svg>